<svg width="1600" height="1600" viewBox="0 0 1600 1600" fill="none" xmlns="http://www.w3.org/2000/svg">
<g clip-path="url(#clip0_285_38)">
<path d="M1333.33 0C1186.06 0 1066.67 119.391 1066.67 266.666C1066.67 413.942 947.276 533.333 800 533.333H761.905C635.668 533.333 533.333 635.668 533.333 761.905C533.333 888.141 430.999 990.476 304.762 990.476C178.525 990.476 76.1905 888.142 76.1905 761.905C76.1905 635.669 178.525 533.333 304.762 533.333C430.999 533.333 533.333 430.998 533.333 304.762V266.666C533.333 119.391 413.943 0 266.667 0C119.391 0 0 119.391 0 266.666V1333.33C0 1480.61 119.391 1600 266.667 1600C413.943 1600 533.333 1480.61 533.333 1333.33C533.333 1186.06 652.724 1066.67 800 1066.67C947.276 1066.67 1066.67 1186.06 1066.67 1333.33C1066.67 1480.61 1186.06 1600 1333.33 1600C1480.61 1600 1600 1480.61 1600 1333.33C1600 1186.06 1480.61 1066.67 1333.33 1066.67C1186.06 1066.67 1066.67 947.276 1066.67 800C1066.67 652.725 1186.06 533.333 1333.33 533.333C1480.61 533.333 1600 413.943 1600 266.667C1600 119.391 1480.61 0 1333.33 0Z" fill="url(#paint0_linear_285_38)"/>
</g>
<defs>
<linearGradient id="paint0_linear_285_38" x1="-119.28" y1="-240.464" x2="1346.54" y2="0.978489" gradientUnits="userSpaceOnUse">
<stop stop-color="#5B42FF"/>
<stop offset="1" stop-color="#01CCD9"/>
</linearGradient>
<clipPath id="clip0_285_38">
<rect width="1600" height="1600" fill="white"/>
</clipPath>
</defs>
</svg>
